<!DOCTYPE svg PUBLIC "-//W3C//DTD SVG 20010904//EN" "http://www.w3.org/TR/2001/REC-SVG-20010904/DTD/svg10.dtd">
<svg version="1.0" xmlns="http://www.w3.org/2000/svg" width="66px" height="66px" viewBox="0 0 660 660" preserveAspectRatio="xMidYMid meet">
<g id="layer101" fill="#00bb00" stroke="none">
 <path d="M263 650 c-97 -20 -179 -85 -224 -176 -28 -57 -33 -76 -33 -144 0 -68 5 -87 33 -144 57 -115 160 -179 291 -179 237 0 393 236 296 449 -63 140 -221 224 -363 194z m178 -84 c47 -22 102 -77 126 -125 25 -50 25 -172 0 -223 -52 -105 -184 -173 -288 -148 -117 28 -200 122 -207 235 -8 125 56 227 172 272 42 17 153 11 197 -11z"/>
 <path d="M304 357 c-2 -7 -3 -62 -2 -123 3 -101 4 -109 23 -109 18 0 20 8 23 97 l3 97 82 3 c74 3 82 5 82 23 0 19 -8 20 -103 23 -79 2 -104 0 -108 -11z"/>
 </g>

</svg>