<!DOCTYPE svg PUBLIC "-//W3C//DTD SVG 20010904//EN" "http://www.w3.org/TR/2001/REC-SVG-20010904/DTD/svg10.dtd">
<svg version="1.0" xmlns="http://www.w3.org/2000/svg" width="65px" height="62px" viewBox="0 0 650 620" preserveAspectRatio="xMidYMid meet">
<g id="layer101" fill="#00b900" stroke="none">
 <path d="M11 606 c-8 -9 -11 -74 -9 -212 l3 -198 27 -7 c34 -9 48 8 18 19 -22 8 -22 12 -21 188 0 98 1 182 1 187 0 4 9 7 20 7 15 0 33 -27 80 -120 l60 -120 145 0 145 0 0 -46 c0 -57 23 -56 30 2 l5 39 68 3 c45 2 67 7 67 15 0 14 -97 196 -125 235 -16 22 -18 22 -259 22 -195 0 -246 -3 -255 -14z"/>
 <path d="M97 244 c1 -124 5 -229 8 -234 4 -6 62 -10 134 -10 l127 0 42 43 42 43 -2 119 -2 120 -3 -107 -4 -108 -39 0 c-39 0 -39 0 -42 -42 l-3 -43 -122 -3 -123 -3 0 220 c0 121 -3 222 -7 224 -5 3 -7 -96 -6 -219z m313 -163 c0 -12 -29 -35 -36 -28 -11 10 5 37 21 37 8 0 15 -4 15 -9z"/>
 <path d="M147 254 c-18 -18 15 -24 129 -24 104 0 124 2 124 15 0 13 -20 15 -123 15 -68 0 -127 -3 -130 -6z"/>
 <path d="M145 150 c4 -6 58 -10 131 -10 76 0 124 4 124 10 0 6 -50 10 -131 10 -84 0 -128 -4 -124 -10z"/>
 </g>

</svg>